<svg width="148" height="32" viewBox="0 0 148 32" fill="none" xmlns="http://www.w3.org/2000/svg">
<path d="M9.87875 31.26C8.33208 31.26 6.93208 30.98 5.67875 30.42C4.45208 29.86 3.45208 29.1 2.67875 28.14C1.47875 26.6467 0.87875 24.7933 0.87875 22.58C0.87875 21.0067 1.17208 19.58 1.75875 18.3C2.93208 15.58 4.87875 13.2467 7.59875 11.3C10.2921 9.38 12.9188 8.42 15.4788 8.42C17.0788 8.42 18.4254 8.82 19.5188 9.62C20.6121 10.42 21.1588 11.5667 21.1588 13.06C21.1588 14.1 20.8788 15.1133 20.3188 16.1C19.7854 17.06 19.1054 17.7 18.2788 18.02C18.2254 18.02 18.1721 18.0067 18.1188 17.98C18.0654 17.9267 18.0521 17.8867 18.0788 17.86C18.5321 17.22 18.9454 16.5533 19.3188 15.86C19.6921 15.14 19.8788 14.3533 19.8788 13.5C19.8788 12.6733 19.6254 11.9533 19.1188 11.34C18.6388 10.7 18.0121 10.2067 17.2388 9.86C16.4921 9.48667 15.7188 9.3 14.9188 9.3C13.8254 9.3 12.7321 9.55333 11.6388 10.06C10.5454 10.5667 9.45208 11.2333 8.35875 12.06C6.01208 13.9 4.41208 16.26 3.55875 19.14C3.15875 20.42 2.95875 21.66 2.95875 22.86C2.95875 25.1533 3.74542 27.0067 5.31875 28.42C5.95875 28.98 6.63875 29.4067 7.35875 29.7C8.07875 30.02 8.85208 30.18 9.67875 30.18C12.3721 30.18 15.3054 29.1933 18.4788 27.22C21.6788 25.2733 25.0654 22.3133 28.6388 18.34L24.9988 18.42C23.8521 18.3933 23.2788 18.1533 23.2788 17.7C23.2788 17.1667 23.8388 16.6067 24.9588 16.02C25.4121 15.86 25.7188 15.78 25.8788 15.78C26.1188 15.78 26.2654 15.9667 26.3188 16.34C26.3721 16.6867 26.4921 16.8867 26.6788 16.94C27.1321 16.9667 27.6121 16.9933 28.1188 17.02C28.6254 17.02 29.1721 17.02 29.7588 17.02C32.2654 13.9533 34.5321 11.3933 36.5588 9.34C38.6121 7.28667 40.5188 5.63333 42.2788 4.38C44.0654 3.12667 45.7854 2.19333 47.4388 1.58C47.6788 1.47333 47.9721 1.42 48.3188 1.42C49.2254 1.42 49.6788 1.7 49.6788 2.26C49.6788 2.5 49.5454 2.75333 49.2788 3.02C45.7054 6.80667 43.0921 11.3267 41.4388 16.58C41.8387 16.5533 42.2121 16.5267 42.5588 16.5C42.9321 16.4733 43.2788 16.4333 43.5988 16.38C43.7321 16.3533 43.8388 16.34 43.9188 16.34C44.0254 16.34 44.1321 16.34 44.2388 16.34C44.7188 16.34 44.9588 16.4067 44.9588 16.54C44.9588 16.9667 43.7054 17.2733 41.1988 17.46C40.5321 19.6467 40.1988 21.6867 40.1988 23.58C40.1988 25.34 40.4654 26.3667 40.9988 26.66C41.0521 26.6867 41.1054 26.7 41.1588 26.7C41.2121 26.7267 41.2654 26.74 41.3188 26.74C41.5588 26.74 41.7988 26.62 42.0387 26.38C42.3054 26.1133 42.4388 25.98 42.4388 25.98C42.4921 26.0333 42.5188 26.1267 42.5188 26.26C42.5188 26.7933 42.3454 27.3 41.9988 27.78C41.6788 28.26 41.2921 28.5 40.8388 28.5C40.5454 28.5 40.2521 28.38 39.9588 28.14C39.1321 27.4733 38.7188 26.2067 38.7188 24.34C38.7188 24.1267 38.7188 23.9133 38.7188 23.7C38.7188 23.46 38.7321 23.2333 38.7588 23.02C38.8121 22.2467 38.9054 21.4067 39.0388 20.5C39.1988 19.5933 39.3988 18.6067 39.6388 17.54L29.9588 18.22C26.2254 22.5133 22.6921 25.7533 19.3588 27.94C16.0254 30.1533 12.8654 31.26 9.87875 31.26ZM31.0388 17.02C32.0521 16.9933 33.2921 16.9533 34.7588 16.9C36.2521 16.8467 37.9454 16.78 39.8388 16.7C41.0921 12.38 42.3721 9.02 43.6788 6.62C43.8921 6.19333 44.1188 5.78 44.3588 5.38C44.6254 4.98 44.8921 4.59333 45.1588 4.22C44.4921 4.43333 43.7454 4.80667 42.9188 5.34C42.0921 5.84666 41.3054 6.39333 40.5588 6.98C39.8121 7.56667 39.1988 8.07333 38.7188 8.5C37.3321 9.75333 36.0121 11.1133 34.7588 12.58C33.5321 14.02 32.2921 15.5 31.0388 17.02ZM46.9844 27.14C45.9444 27.14 45.1444 26.7 44.5844 25.82C44.5577 25.7933 44.5444 25.7 44.5444 25.54C44.5444 24.9 44.9577 23.58 45.7844 21.58C46.1577 20.6733 46.531 19.82 46.9044 19.02C47.3044 18.1933 47.7044 17.4067 48.1044 16.66C50.3444 12.5267 52.371 9.26 54.1844 6.86C54.611 6.32667 55.4244 6.11333 56.6244 6.22C56.891 6.24667 57.0244 6.36667 57.0244 6.58C57.0244 6.87333 56.931 7.07333 56.7444 7.18C54.5577 8.86 51.6377 13.2867 47.9844 20.46C48.1177 20.3267 48.411 20.0333 48.8644 19.58C49.3177 19.1267 49.9577 18.5 50.7844 17.7C52.8644 15.7 54.371 14.7 55.3044 14.7C55.491 14.7533 55.7444 14.8067 56.0644 14.86C56.3844 14.8867 56.7577 14.9267 57.1844 14.98C57.6644 14.98 57.9044 15.3 57.9044 15.94C57.9044 17.7267 56.8644 19.8467 54.7844 22.3C53.7177 23.5533 52.5044 24.6333 51.1444 25.54C49.571 26.6067 48.1844 27.14 46.9844 27.14ZM46.5044 25.86C47.331 25.86 48.4377 25.4067 49.8244 24.5C50.5444 24.0467 51.1977 23.5533 51.7844 23.02C52.371 22.4867 52.8777 21.9267 53.3044 21.34C55.0644 18.9667 55.9444 17.26 55.9444 16.22C55.9444 15.82 55.771 15.62 55.4244 15.62C54.4377 15.62 52.5444 16.9933 49.7444 19.74C47.131 22.4067 45.8244 24.2467 45.8244 25.26C45.8244 25.66 46.051 25.86 46.5044 25.86ZM61.035 26.94C59.0883 26.94 58.115 25.74 58.115 23.34C58.115 20.94 59.075 18.6467 60.995 16.46C61.0217 16.4333 61.0083 16.34 60.955 16.18C60.9017 15.9933 60.875 15.86 60.875 15.78C60.875 15.62 60.9283 15.5 61.035 15.42C61.9683 14.6733 63.0617 14.3 64.315 14.3C64.6617 14.3 64.9417 14.3667 65.155 14.5C65.4217 14.6067 65.675 14.7133 65.915 14.82C66.155 14.9267 66.3817 15.0467 66.595 15.18C67.6083 15.7933 68.315 16.4333 68.715 17.1C69.3817 17.0733 69.9417 17.0467 70.395 17.02C70.8483 16.9933 71.195 16.9667 71.435 16.94H71.595C71.835 16.94 71.955 17.0333 71.955 17.22C71.955 17.2733 71.9017 17.3133 71.795 17.34C71.5017 17.3933 71.115 17.46 70.635 17.54C70.1817 17.62 69.6217 17.7 68.955 17.78C69.035 17.9667 69.075 18.18 69.075 18.42C69.075 18.6067 69.0617 18.74 69.035 18.82C68.635 20.98 67.5817 22.8733 65.875 24.5C64.2217 26.1267 62.6083 26.94 61.035 26.94ZM67.755 17.1C67.3283 16.4333 66.4883 16.1 65.235 16.1C64.275 16.1 63.6483 16.2067 63.355 16.42C63.275 16.4467 63.195 16.5 63.115 16.58C63.035 16.66 62.9417 16.7533 62.835 16.86C64.3283 17.0467 65.9683 17.1267 67.755 17.1ZM61.155 26.3C62.3283 26.3 63.675 25.46 65.195 23.78C66.7417 22.1 67.6617 20.4733 67.955 18.9C67.9817 18.7667 67.995 18.66 67.995 18.58C68.0217 18.4733 68.035 18.38 68.035 18.3C68.035 18.14 68.0083 17.98 67.955 17.82C67.4483 17.8467 66.9283 17.86 66.395 17.86C65.8617 17.86 65.3283 17.86 64.795 17.86C64.2617 17.86 63.7683 17.86 63.315 17.86C62.8883 17.86 62.5017 17.8467 62.155 17.82C61.0883 19.26 60.4217 20.42 60.155 21.3C59.835 22.2867 59.675 23.2333 59.675 24.14C59.675 25.58 60.1683 26.3 61.155 26.3ZM78.6141 26.78C77.9207 26.62 77.2674 26.2467 76.6541 25.66C76.5207 25.5267 76.4541 25.3267 76.4541 25.06C76.4541 23.9933 76.9341 22.5 77.8941 20.58C77.1474 21.54 76.5341 22.3267 76.0541 22.94C75.5741 23.5533 75.2141 23.9933 74.9741 24.26C73.9341 25.46 73.0674 26.18 72.3741 26.42C72.1341 26.5 71.8941 26.54 71.6541 26.54C70.6674 26.54 70.0941 26.14 69.9341 25.34C69.8274 25.1 69.7741 24.7667 69.7741 24.34C69.7741 23.0333 70.6407 20.54 72.3741 16.86C72.7741 16.0067 73.2274 15.58 73.7341 15.58C74.1074 15.58 74.4674 15.86 74.8141 16.42L73.1341 19.74C72.5474 20.8867 72.0941 21.8733 71.7741 22.7C71.4807 23.5267 71.3341 24.1667 71.3341 24.62C71.3341 25.26 71.5474 25.58 71.9741 25.58C72.6674 25.58 73.7874 24.6867 75.3341 22.9C76.1607 21.94 76.9607 20.8733 77.7341 19.7C78.5341 18.5267 79.3207 17.2467 80.0941 15.86C80.2541 15.54 80.4941 15.38 80.8141 15.38C81.0807 15.38 81.3341 15.5 81.5741 15.74C81.8407 15.9533 81.9474 16.1133 81.8941 16.22C79.3074 21.58 78.0141 24.66 78.0141 25.46C78.0141 25.78 78.1207 25.9133 78.3341 25.86C80.4941 25.6733 82.8141 23.7667 85.2941 20.14C85.4274 19.9 85.5741 19.7667 85.7341 19.74C85.8941 19.6867 85.9741 19.74 85.9741 19.9C85.9741 20.0067 85.9207 20.1533 85.8141 20.34C84.6407 22.18 83.2407 23.7933 81.6141 25.18C80.1741 26.38 79.1741 26.9133 78.6141 26.78ZM87.3669 27.18C85.3135 26.7267 84.2869 25.7933 84.2869 24.38C84.2869 23.98 84.3535 23.5133 84.4869 22.98C84.6202 22.42 84.8335 21.8067 85.1269 21.14L88.5269 13.5C88.1269 13.5533 87.6869 13.6067 87.2069 13.66C86.7269 13.7133 86.1935 13.7667 85.6069 13.82C85.5002 13.82 85.4469 13.7267 85.4469 13.54C85.4469 13.1667 85.5135 12.9533 85.6469 12.9L89.0069 12.42L91.6069 7.14C91.8469 6.66 92.5935 6.42 93.8469 6.42C94.4335 6.42 94.6869 6.48667 94.6069 6.62C94.0202 7.55333 93.4202 8.5 92.8069 9.46C92.2202 10.3933 91.6335 11.3267 91.0469 12.26C91.1269 12.2333 91.3002 12.2067 91.5669 12.18C91.8335 12.1533 92.1802 12.1267 92.6069 12.1C92.9269 12.0733 93.2335 12.06 93.5269 12.06C93.8202 12.0333 94.1002 12.02 94.3669 12.02C95.4869 12.02 96.0202 12.0733 95.9669 12.18C95.7802 12.3667 93.9669 12.7267 90.5269 13.26C87.6202 18.7533 86.1669 22.6333 86.1669 24.9C86.1669 25.7267 86.4069 26.22 86.8869 26.38C87.2602 26.4867 88.2069 25.9933 89.7269 24.9C90.6069 24.26 91.4069 23.5667 92.1269 22.82C92.8469 22.0467 93.5002 21.2333 94.0869 20.38C94.2735 20.1133 94.4469 19.98 94.6069 19.98C94.7135 19.98 94.7669 20.0333 94.7669 20.14C94.7669 20.2467 94.7002 20.4067 94.5669 20.62C93.5535 22.2467 92.2069 23.78 90.5269 25.22C88.9002 26.6333 87.8469 27.2867 87.3669 27.18ZM132.448 29.86C131.942 29.86 131.368 29.4733 130.728 28.7C130.435 28.3267 130.288 27.7533 130.288 26.98C130.288 24.4467 131.582 20.46 134.168 15.02C132.382 18.2733 130.368 20.9533 128.128 23.06C125.222 25.78 122.262 27.14 119.248 27.14C118.955 27.14 118.648 27.1267 118.328 27.1C118.008 27.0733 117.702 27.0333 117.408 26.98C115.755 26.66 114.928 25.42 114.928 23.26C114.928 22.14 115.088 21.02 115.408 19.9C115.728 18.78 116.222 17.6733 116.888 16.58L121.168 9.66C122.022 8.27333 122.648 7.08667 123.048 6.1C123.448 5.11333 123.648 4.32667 123.648 3.74C123.648 2.99333 123.328 2.52667 122.688 2.34C121.408 1.94 120.168 1.74 118.968 1.74C116.728 1.74 113.955 2.40667 110.648 3.74C108.488 4.62 106.502 5.92667 104.688 7.66C102.795 9.5 101.848 11.1667 101.848 12.66C101.848 13.5133 102.248 14.2467 103.048 14.86C103.688 15.34 104.768 15.58 106.288 15.58C106.582 15.58 107.128 15.54 107.928 15.46C108.728 15.38 109.782 15.2467 111.088 15.06L109.688 15.46C108.595 15.78 107.622 16.02 106.768 16.18C105.942 16.3133 105.222 16.38 104.608 16.38C103.702 16.38 102.862 16.26 102.088 16.02C100.782 15.5933 100.128 14.6333 100.128 13.14C100.128 11.94 100.502 10.8067 101.248 9.74C102.822 7.5 105.742 5.34 110.008 3.26C113.288 1.68667 116.728 0.899998 120.328 0.899998C123.475 0.899998 125.222 1.7 125.568 3.3C125.728 3.99333 124.902 5.96667 123.088 9.22C122.128 10.9267 121.342 12.3133 120.728 13.38C120.142 14.4467 119.675 15.2867 119.328 15.9C118.982 16.5133 118.715 16.9933 118.528 17.34C118.342 17.6867 118.195 17.9933 118.088 18.26C117.982 18.5 117.862 18.8067 117.728 19.18C117.115 20.86 116.808 22.2467 116.808 23.34C116.808 25.26 117.715 26.22 119.528 26.22C119.742 26.22 119.982 26.2067 120.248 26.18C120.515 26.1267 120.795 26.0733 121.088 26.02C125.168 25.0867 128.715 22.38 131.728 17.9C133.942 14.62 135.262 11.74 135.688 9.26C135.715 8.91333 136.088 8.74 136.808 8.74C137.288 8.74 137.742 8.83333 138.168 9.02C138.595 9.18 138.808 9.40667 138.808 9.7C138.808 9.72667 138.782 9.82 138.728 9.98C137.662 11.6867 136.688 13.3933 135.808 15.1C134.955 16.8067 134.208 18.5133 133.568 20.22C132.395 23.2867 131.808 25.6467 131.808 27.3C131.808 27.8867 131.902 28.3133 132.088 28.58C132.435 29.0867 132.608 29.46 132.608 29.7C132.608 29.8067 132.555 29.86 132.448 29.86ZM136.987 28.14C136.88 28.14 136.827 28.1 136.827 28.02C136.827 27.6733 137.734 27.0333 139.547 26.1C140 25.8867 140.414 25.6733 140.787 25.46C141.16 25.22 141.48 25.0067 141.747 24.82C143.374 23.62 144.187 22.58 144.187 21.7C144.187 21.0333 143.534 20.7 142.227 20.7C139.187 20.6467 137.667 19.98 137.667 18.7C137.667 18.14 137.907 17.6067 138.387 17.1C138.947 16.46 139.88 15.8467 141.187 15.26C142.6 14.62 143.894 14.3 145.067 14.3C146.107 14.3 146.894 14.5533 147.427 15.06C147.667 15.3 147.787 15.5933 147.787 15.94C147.787 16.3133 147.667 16.6467 147.427 16.94C147.187 17.2333 146.92 17.38 146.627 17.38C146.094 17.38 145.8 17.02 145.747 16.3C145.747 15.7933 145.667 15.5 145.507 15.42C145.347 15.34 144.92 15.3 144.227 15.3C143.347 15.3 142.36 15.5933 141.267 16.18C139.96 16.8467 139.347 17.6467 139.427 18.58C139.48 19.1133 140.494 19.38 142.467 19.38C145.16 19.38 146.507 20.0333 146.507 21.34C146.507 22.7533 145.347 24.1667 143.027 25.58C141.56 26.4867 139.774 27.2867 137.667 27.98C137.374 28.0867 137.147 28.14 136.987 28.14Z" fill="black" fill-opacity="0.8"/>
</svg>
