<svg width="103" height="30" viewBox="0 0 103 30" fill="none" xmlns="http://www.w3.org/2000/svg">
<path d="M6.75844 29.2C4.0651 29.2 2.19844 28.5867 1.15844 27.36C0.598438 26.72 0.318438 26 0.318438 25.2C0.318438 23.28 1.75844 21.1867 4.63844 18.92C5.57177 18.1733 6.4651 17.8 7.31844 17.8C7.53177 17.8 7.63844 17.84 7.63844 17.92C7.63844 18.1067 7.3051 18.3333 6.63844 18.6C5.49177 19.08 4.5051 19.96 3.67844 21.24C2.8251 22.5467 2.39844 23.7867 2.39844 24.96C2.39844 27.12 4.1051 28.2 7.51844 28.2C9.6251 28.2 11.4918 27.88 13.1184 27.24C16.6918 25.8533 19.5451 24.0533 21.6784 21.84C23.5451 19.9467 24.4784 18.1333 24.4784 16.4C24.4784 14.2933 23.1984 13.24 20.6384 13.24C16.5851 13.24 13.5718 12.7333 11.5984 11.72C9.97177 10.8933 9.15844 9.8 9.15844 8.44C9.15844 6.09333 10.9318 4.14667 14.4784 2.6C17.3584 1.29333 20.1051 0.64 22.7184 0.64C24.8518 0.64 26.5318 1.08 27.7584 1.96C28.0784 2.14667 28.2384 2.41333 28.2384 2.76C28.2384 3.26667 27.9184 3.78666 27.2784 4.32C26.6651 4.85333 26.2118 5.09333 25.9184 5.04C25.8651 5.04 25.9584 4.86667 26.1984 4.52C26.5451 4.09333 26.7184 3.70667 26.7184 3.36C26.7184 3.04 26.5984 2.76 26.3584 2.52C25.6384 1.74667 24.3184 1.36 22.3984 1.36C20.2651 1.36 18.0784 1.82666 15.8384 2.76C13.4918 3.77333 12.0651 4.96 11.5584 6.32C11.2918 7.01333 11.1584 7.64 11.1584 8.2C11.1584 10.5733 14.4784 11.76 21.1184 11.76C25.1184 11.76 27.1184 12.96 27.1184 15.36C27.1184 17.3867 25.8251 19.6933 23.2384 22.28C20.5984 24.8667 17.7451 26.6933 14.6784 27.76C11.9318 28.72 9.29177 29.2 6.75844 29.2ZM29.48 26.32C28.7067 26.32 28.0267 26.1333 27.44 25.76C26.6667 25.2267 26.28 24.4533 26.28 23.44C26.28 22.3467 26.7467 21.0133 27.68 19.44C28.9333 17.3867 30.7733 15.5867 33.2 14.04C33.8133 13.64 34.4267 13.44 35.04 13.44C35.84 13.44 36.4133 13.6933 36.76 14.2C36.9733 14.4933 37.08 14.8267 37.08 15.2C37.08 16.32 36.1733 17.5467 34.36 18.88C33.8267 19.2533 33.2533 19.6 32.64 19.92C32.0533 20.2133 31.4133 20.4267 30.72 20.56L29 20.92C28.36 22.0667 28.04 23.0267 28.04 23.8C28.04 24.8667 28.6667 25.4 29.92 25.4C30.9067 25.4 32.1067 24.9867 33.52 24.16C35.4133 23.0667 37.04 21.5467 38.4 19.6C38.6133 19.28 38.8133 19.12 39 19.12C39.08 19.12 39.12 19.1733 39.12 19.28C39.12 19.4133 39.0267 19.6133 38.84 19.88C36.2533 23.7733 33.3333 25.9067 30.08 26.28C29.9733 26.3067 29.8667 26.32 29.76 26.32C29.68 26.32 29.5867 26.32 29.48 26.32ZM29.48 20.24C30.2267 20.24 31.1867 19.9067 32.36 19.24C34.0133 18.3067 35.1733 17.1067 35.84 15.64C36.0267 15.2667 36.12 14.96 36.12 14.72C36.12 14.48 36.0267 14.36 35.84 14.36C35.4933 14.36 34.7867 14.7867 33.72 15.64C32.9467 16.3067 32.1867 17.0267 31.44 17.8C30.72 18.5467 30.0267 19.3467 29.36 20.2C29.3333 20.2267 29.3733 20.24 29.48 20.24ZM36.1981 26.48C35.8248 26.48 35.6381 26.36 35.6381 26.12C35.6381 26.0933 35.6648 26 35.7181 25.84C36.9715 23.44 38.4515 20.0133 40.1581 15.56C40.3448 15.08 40.6648 14.6667 41.1181 14.32C41.5715 13.9467 41.9581 13.76 42.2781 13.76C42.6248 13.76 42.7715 13.9467 42.7181 14.32C42.4515 14.88 42.1315 15.6 41.7581 16.48C41.3848 17.36 40.9448 18.3867 40.4381 19.56C41.1848 18.5733 42.2915 17.4667 43.7581 16.24C44.5048 15.6267 45.1448 15.12 45.6781 14.72C46.2381 14.32 46.7048 14.0267 47.0781 13.84C47.4515 13.6533 47.8648 13.56 48.3181 13.56C48.8515 13.56 49.3048 13.6933 49.6781 13.96C50.0515 14.2267 50.2381 14.5333 50.2381 14.88C50.2381 15.0933 50.1315 15.3333 49.9181 15.6C49.7315 15.84 49.5315 15.96 49.3181 15.96C49.2115 15.96 48.9848 15.8533 48.6381 15.64C48.3181 15.4 47.9715 15.28 47.5981 15.28C47.1981 15.28 46.7315 15.4 46.1981 15.64C42.8115 17.16 39.8915 20.5867 37.4381 25.92C37.2781 26.2933 36.8648 26.48 36.1981 26.48ZM50.5403 26.48C50.3803 26.5333 49.727 26.1867 48.5803 25.44C48.447 25.3067 48.3803 25.0533 48.3803 24.68C48.3803 22.92 49.1403 19.9867 50.6603 15.88C51.0336 14.84 51.5403 14.32 52.1803 14.32C52.5003 14.32 52.7803 14.4667 53.0203 14.76C53.287 15.0267 53.3803 15.24 53.3003 15.4C53.007 16.0133 52.687 16.72 52.3403 17.52C52.0203 18.2933 51.6736 19.16 51.3003 20.12C50.3936 22.44 49.9403 24.04 49.9403 24.92C49.9403 25.2933 50.0603 25.48 50.3003 25.48C50.407 25.48 50.5136 25.44 50.6203 25.36C51.047 25.0933 51.6736 24.5333 52.5003 23.68C53.327 22.8267 54.3536 21.6933 55.5803 20.28C58.247 17.2133 59.967 14.92 60.7403 13.4C61.1136 12.7067 61.5003 12.36 61.9003 12.36C62.247 12.36 62.4203 12.5733 62.4203 13C62.4203 13.4 62.207 13.8533 61.7803 14.36C60.7936 15.5333 59.727 16.7733 58.5803 18.08C57.4603 19.36 56.2736 20.7067 55.0203 22.12C52.2203 25.1333 50.727 26.5867 50.5403 26.48ZM68.5584 11.96C68.1318 12.0133 67.6651 11.96 67.1584 11.8C66.6784 11.64 66.4384 11.44 66.4384 11.2C66.4384 11.04 66.4918 10.88 66.5984 10.72C66.7051 10.5333 66.8384 10.3467 66.9984 10.16C67.4518 9.6 67.7184 9.25333 67.7984 9.12C67.8784 8.96 68.0251 8.88 68.2384 8.88C68.8518 8.88 69.3318 9.17333 69.6784 9.76C69.7051 9.78667 69.7184 9.84 69.7184 9.92C69.7184 10.16 69.5851 10.5067 69.3184 10.96C68.9718 11.6 68.7184 11.9333 68.5584 11.96ZM62.5184 26.4C60.9718 26.0533 60.1984 25.44 60.1984 24.56C60.1984 24.1333 60.7184 22.6267 61.7584 20.04C62.0518 19.5333 62.4384 18.8 62.9184 17.84C63.4251 16.8533 64.0518 15.6533 64.7984 14.24C64.9318 14.0267 65.2251 13.92 65.6784 13.92C66.0784 13.92 66.4651 13.9867 66.8384 14.12C67.2384 14.2267 67.3984 14.3333 67.3184 14.44C63.7984 19.4267 62.0384 22.88 62.0384 24.8C62.0384 25.36 62.2251 25.64 62.5984 25.64C63.3184 25.64 64.4518 25.1333 65.9984 24.12C67.8384 22.8667 69.3851 21.36 70.6384 19.6C70.9051 19.1733 71.1718 18.96 71.4384 18.96C71.5184 18.96 71.5584 19 71.5584 19.08C71.5584 19.2133 71.4384 19.4667 71.1984 19.84C70.0251 21.68 68.3984 23.3067 66.3184 24.72C64.4518 26 63.1851 26.56 62.5184 26.4ZM73.46 26.32C72.9 26.32 72.3267 26.1867 71.74 25.92C71.18 25.6533 70.7 25.2533 70.3 24.72C69.9 24.16 69.7 23.4933 69.7 22.72C69.7 21.6533 70.1 20.44 70.9 19.08C71.7 17.72 72.7533 16.52 74.06 15.48C74.8867 14.8133 75.58 14.36 76.14 14.12C76.94 13.7733 77.7 13.6 78.42 13.6C79.3267 13.6 80.0333 13.8933 80.54 14.48C80.8067 14.7467 80.94 15.0267 80.94 15.32C80.94 15.8 80.7133 16.04 80.26 16.04C79.94 16.04 79.7 15.84 79.54 15.44C79.3533 14.88 78.9533 14.6 78.34 14.6C77.5933 14.6 76.7533 15.0133 75.82 15.84C74.78 16.6667 73.8333 17.8 72.98 19.24C72.0467 20.7867 71.58 22.1467 71.58 23.32C71.58 24.4667 71.9267 25.1867 72.62 25.48C72.86 25.5867 73.1667 25.64 73.54 25.64C74.82 25.64 76.2733 25.1067 77.9 24.04C79.6867 22.8933 81.22 21.4133 82.5 19.6C82.7933 19.2 83.06 19 83.3 19C83.38 19 83.42 19.0267 83.42 19.08C83.42 19.2133 83.3 19.4667 83.06 19.84C81.8333 21.7333 80.1133 23.36 77.9 24.72C76.8867 25.3333 76.0733 25.76 75.46 26C74.8733 26.2133 74.2067 26.32 73.46 26.32ZM83.2691 26.32C82.4957 26.32 81.8157 26.1333 81.2291 25.76C80.4557 25.2267 80.0691 24.4533 80.0691 23.44C80.0691 22.3467 80.5357 21.0133 81.4691 19.44C82.7224 17.3867 84.5624 15.5867 86.9891 14.04C87.6024 13.64 88.2157 13.44 88.8291 13.44C89.6291 13.44 90.2024 13.6933 90.5491 14.2C90.7624 14.4933 90.8691 14.8267 90.8691 15.2C90.8691 16.32 89.9624 17.5467 88.1491 18.88C87.6157 19.2533 87.0424 19.6 86.4291 19.92C85.8424 20.2133 85.2024 20.4267 84.5091 20.56L82.7891 20.92C82.1491 22.0667 81.8291 23.0267 81.8291 23.8C81.8291 24.8667 82.4557 25.4 83.7091 25.4C84.6957 25.4 85.8957 24.9867 87.3091 24.16C89.2024 23.0667 90.8291 21.5467 92.1891 19.6C92.4024 19.28 92.6024 19.12 92.7891 19.12C92.8691 19.12 92.9091 19.1733 92.9091 19.28C92.9091 19.4133 92.8157 19.6133 92.6291 19.88C90.0424 23.7733 87.1224 25.9067 83.8691 26.28C83.7624 26.3067 83.6557 26.32 83.5491 26.32C83.4691 26.32 83.3757 26.32 83.2691 26.32ZM83.2691 20.24C84.0157 20.24 84.9757 19.9067 86.1491 19.24C87.8024 18.3067 88.9624 17.1067 89.6291 15.64C89.8157 15.2667 89.9091 14.96 89.9091 14.72C89.9091 14.48 89.8157 14.36 89.6291 14.36C89.2824 14.36 88.5757 14.7867 87.5091 15.64C86.7357 16.3067 85.9757 17.0267 85.2291 17.8C84.5091 18.5467 83.8157 19.3467 83.1491 20.2C83.1224 20.2267 83.1624 20.24 83.2691 20.24ZM91.3072 27.64C91.2005 27.64 91.1472 27.6 91.1472 27.52C91.1472 27.1733 92.0539 26.5333 93.8672 25.6C94.3205 25.3867 94.7339 25.1733 95.1072 24.96C95.4805 24.72 95.8005 24.5067 96.0672 24.32C97.6939 23.12 98.5072 22.08 98.5072 21.2C98.5072 20.5333 97.8539 20.2 96.5472 20.2C93.5072 20.1467 91.9872 19.48 91.9872 18.2C91.9872 17.64 92.2272 17.1067 92.7072 16.6C93.2672 15.96 94.2005 15.3467 95.5072 14.76C96.9205 14.12 98.2139 13.8 99.3872 13.8C100.427 13.8 101.214 14.0533 101.747 14.56C101.987 14.8 102.107 15.0933 102.107 15.44C102.107 15.8133 101.987 16.1467 101.747 16.44C101.507 16.7333 101.241 16.88 100.947 16.88C100.414 16.88 100.121 16.52 100.067 15.8C100.067 15.2933 99.9872 15 99.8272 14.92C99.6672 14.84 99.2405 14.8 98.5472 14.8C97.6672 14.8 96.6805 15.0933 95.5872 15.68C94.2805 16.3467 93.6672 17.1467 93.7472 18.08C93.8005 18.6133 94.8139 18.88 96.7872 18.88C99.4805 18.88 100.827 19.5333 100.827 20.84C100.827 22.2533 99.6672 23.6667 97.3472 25.08C95.8805 25.9867 94.0939 26.7867 91.9872 27.48C91.6939 27.5867 91.4672 27.64 91.3072 27.64Z" fill="black" fill-opacity="0.74"/>
</svg>
